<svg width="106" height="131" viewBox="0 0 106 131" fill="none" xmlns="http://www.w3.org/2000/svg">
<path d="M53 111C78.9574 111 100 89.9574 100 64C100 38.0426 78.9574 17 53 17C27.0426 17 6 38.0426 6 64C6 89.9574 27.0426 111 53 111Z" fill="#F3E4E1"/>
<mask id="mask0" mask-type="alpha" maskUnits="userSpaceOnUse" x="6" y="17" width="94" height="94">
<path d="M53 111C78.9574 111 100 89.9574 100 64C100 38.0426 78.9574 17 53 17C27.0426 17 6 38.0426 6 64C6 89.9574 27.0426 111 53 111Z" fill="#F3E4E1"/>
</mask>
<g mask="url(#mask0)">
<path fill-rule="evenodd" clip-rule="evenodd" d="M58.5546 73.3248C68.5736 70.8402 76 61.7873 76 51C76 38.2975 65.7025 28 53 28C40.2975 28 30 38.2975 30 51C30 61.7873 37.4264 70.8402 47.4454 73.3248C24.1059 76.0727 6 95.9219 6 120C6 145.957 27.0426 167 53 167C78.9574 167 100 145.957 100 120C100 95.9219 81.8941 76.0727 58.5546 73.3248Z" fill="#E5674E"/>
</g>
</svg>
